
<svg width="131px" height="40px" viewBox="0 0 131 40" version="1.1" xmlns="http://www.w3.org/2000/svg" xmlns:xlink="http://www.w3.org/1999/xlink">
    <g id="3D-MOCKER" stroke="none" stroke-width="1" fill="none" fill-rule="evenodd">
        <g id="Nav" transform="translate(-64.000000, -30.000000)" fill="#000000">
            <path d="M137.945991,41.9752851 L151.880216,30.1790743 L151.852808,51.8202721 L147.049616,40.2889412 L137.945991,41.9752851 Z M71.841588,47.3551492 L71.841588,36.8962795 C71.841588,36.1672129 71.4942816,35.7996598 70.800097,35.7996598 L69.7581778,35.7996598 L69.7581778,48.4000009 L70.800097,48.4000009 C71.4942816,48.4000009 71.841588,48.050998 71.841588,47.3551492 L71.841588,47.3551492 Z M78.6917897,69.9997843 L72.8967829,69.9997843 L70.1988415,54.2014726 L69.7581778,54.1988842 L69.7581778,69.9997843 L64,69.9997843 L64,30.0003451 L73.4295193,30.0003451 C74.5874928,30.0003451 75.5715991,30.4088812 76.3826945,31.2259535 C77.1933616,32.0434571 77.5993376,33.0343837 77.5993376,34.2013216 L77.5993376,49.9992019 C77.5993376,51.4672573 77.0045057,52.6169391 75.8131291,53.4499732 L78.6917897,69.9997843 Z M92.5386955,63.1513902 L92.5386955,36.8985228 C92.5386955,36.1672992 92.1909608,35.7997461 91.4954915,35.7997461 C90.8013069,35.7997461 90.4540005,36.1672992 90.4540005,36.8985228 L90.4540005,63.1513902 C90.4540005,63.8519844 90.8013069,64.2005559 91.4954915,64.2005559 C92.1909608,64.2005559 92.5386955,63.8519844 92.5386955,63.1513902 L92.5386955,63.1513902 Z M98.2951603,65.8001883 C98.2951603,66.965832 97.8900408,67.95719 97.0798019,68.7738308 C96.2674218,69.5913345 95.2846003,69.9998706 94.1266267,69.9998706 L88.9144609,69.9998706 C87.7569156,69.9998706 86.7638162,69.5913345 85.9368758,68.7738308 C85.1095071,67.95719 84.696251,66.965832 84.696251,65.8001883 L84.696251,34.2014079 C84.696251,33.0340386 85.1095071,32.0435434 85.9368758,31.2260398 C86.7638162,30.4089675 87.7569156,30 88.9144609,30 L94.1266267,30 C95.2846003,30 96.2674218,30.4089675 97.0798019,31.2260398 C97.8900408,32.0435434 98.2951603,33.0340386 98.2951603,34.2014079 L98.2951603,65.8001883 Z M116.410809,69.9998706 L109.61114,69.9998706 C108.453167,69.9998706 107.459639,69.5913345 106.632698,68.7738308 C105.80533,67.95719 105.392074,66.965832 105.392074,65.8001883 L105.392074,34.2014079 C105.392074,33.0340386 105.80533,32.0435434 106.632698,31.2260398 C107.459639,30.4089675 108.453167,30 109.61114,30 L116.410809,30 L116.410809,35.7997461 L112.191742,35.7997461 C111.496701,35.7997461 111.149823,36.1672992 111.149823,36.8985228 L111.149823,63.1513902 C111.149823,63.8519844 111.496701,64.2005559 112.191742,64.2005559 L116.410809,64.2005559 L116.410809,69.9998706 Z M138.74895,30.0001294 L131.831086,49.1823454 L138.742098,70 L132.938098,70 L128.813245,57.485939 L128.172591,59.2495036 L128.172591,70 L122.416127,70 L122.416127,30.0001294 L128.172591,30.0001294 L128.172591,43.2492965 L132.988203,30.0001294 L138.74895,30.0001294 Z M167.554271,69.9998706 L156.535535,69.9998706 L156.535535,30 L167.554271,30 L167.554271,35.7997461 L162.292428,35.7997461 L162.292428,45.8009001 L167.554271,45.8009001 L162.292428,51.6006462 L162.292428,64.2005559 L167.554271,64.2005559 L167.554271,69.9998706 Z M195,69.9998706 L189.243535,69.9998706 L189.243535,50.6006603 L185.023612,69.9998706 L183.584282,69.9998706 L179.316396,50.5959149 L179.316396,69.9998706 L173.558646,69.9998706 L173.558646,30 L178.801646,30 L184.311013,53.4211557 L189.860636,30 L195,30 L195,69.9998706 Z" id="Logo"></path>
        </g>
    </g>
</svg>